<svg viewbox="0 0 548 573" width="548" height="573" version="1.1" xmlns="http://www.w3.org/2000/svg"><g id="Page-1" stroke="none" stroke-width="1" fill="none" fill-rule="evenodd"><g id="icon__scissor" transform="translate(-25 -38)"><path d="M102.393 541.316l409.037-35.755-33.523-382.836L68.87 158.48l33.523 382.836zM25.855 122.418l488.146-42.67 40.444 461.875-488.146 42.67-40.444-461.875z" id="scissor__frame" fill="#F9F9F8" fill-rule="nonzero"/><g id="scissor" transform="translate(2)"><g id="scissor__innerShadow" transform="translate(46.44 6.708)" fill="#DEDEDE"><path d="M271.494 601.487s-49.344-73.032-61.68-243.44l-12.336-36.517-12.336-12.172s24.672 194.753 37.008 231.269c12.336 36.516 24.672 60.86 37.008 60.86h12.336z" id="Path-14" transform="rotate(-140 228.318 455.423)"/><path d="M277.982 119.448s37.008 0 61.68-36.516C364.334 46.416 351.998 9.9 351.998 9.9s12.336 60.86 0 85.204c-12.336 24.344-74.016 48.688-74.016 48.688v-24.344z" id="Path-12" transform="rotate(-140 317.731 76.846)"/><path d="M170.266 504.694s-49.344-73.033-61.68-243.441L96.25 224.737l-12.336-12.172s24.672 194.752 37.008 231.268c12.336 36.517 24.672 60.86 37.008 60.86h12.336z" id="Path-14" transform="scale(1 -1) rotate(-40 -858.236 0)"/><path d="M441.774 251.97s37.008 0 61.68-36.516c24.672-36.516 12.336-73.032 12.336-73.032s12.336 60.86 0 85.204c-12.336 24.344-74.016 48.688-74.016 48.688V251.97z" id="Path-12" transform="scale(1 -1) rotate(-40 -93.71 0)"/></g><g id="scissor__outline" fill-rule="nonzero" fill="#818181"><path d="M233.423 309.186c.136 2.155.408 6.18.816 11.809.678 9.373 1.493 19.816 2.442 31.061 2.714 32.135 5.971 64.273 9.774 94.287 7.045 55.615 15.116 97.422 24.405 120.337 17.827 43.975 32.468 58.422 44.738 52.368 1.01-.498 1.788-1.074 2.358-1.637 0 0-6.66-6.128-8.072-7.658-1.412-1.53-2.072-2.186-5.017-5.412-6.418-7.03-13.395-19.591-22.553-42.182-8.766-21.623-16.704-62.742-23.619-117.326-3.778-29.828-7.02-61.807-9.72-93.788a2600.43 2600.43 0 0 1-2.431-30.917c-.405-5.592-.675-9.581-.81-11.7l-12.311.758z" id="Path-10" transform="rotate(-140 275.69 464.394)"/><path d="M299.338 213.922c2.317-.572 6.15-1.807 11.004-3.86 8.02-3.391 16.034-7.91 23.535-13.725 15.373-11.918 26.555-27.681 31.629-47.704 10.751-42.434-7.007-93.723-27.684-114.125l-7.334 7.404c17.702 17.466 32.717 65.616 23.05 103.769-4.368 17.239-13.955 30.752-27.282 41.085-6.597 5.114-13.689 9.112-20.774 12.109-4.21 1.78-7.425 2.816-9.136 3.238l2.992 11.809z" id="Path-11" transform="rotate(-140 332.545 124.215)"/><path d="M281.08 366.226c21.965-7.44 45.207-8.495 67.166 1.074 26.79 11.673 47.96 37.998 61.662 81.317 20.37 64.401 4.427 106.493-34.696 129.474-9.382 5.512-19.388 9.43-29.391 12.038-6.03 1.573-10.774 2.368-13.612 2.645l-5.06.493L154.07 21.65l11.811-3.514 108.15 350.73a113.963 113.963 0 0 1 7.049-2.64zm54.893 213.667c1.908-.369 4.162-.87 6.695-1.532 8.96-2.337 17.918-5.843 26.234-10.728 34.182-20.08 47.912-56.328 29.23-115.39-12.708-40.175-31.602-63.67-54.87-73.809-18.693-8.146-38.889-7.228-58.177-.695-3.823 1.294-6.944 2.578-9.22 3.639l60.108 198.515z" id="Path-9" transform="rotate(-140 286.431 305.701)"/><path d="M124.755 213.576c.137 2.155.409 6.18.816 11.809.679 9.373 1.493 19.816 2.443 31.06 2.714 32.136 5.97 64.274 9.773 94.287 7.045 55.616 15.116 97.422 24.405 120.338 17.827 43.975 32.468 58.421 44.738 52.368 1.01-.498 1.788-1.074 2.359-1.637l-5.527-5.763c-.692-.58-3.475-3.478-6.558-6.819-3.082-3.34-14.4-20.08-23.558-42.67-8.766-21.624-16.704-62.742-23.618-117.326-3.78-29.829-7.02-61.807-9.721-93.788a2600.43 2600.43 0 0 1-2.431-30.918c-.405-5.591-.675-9.58-.809-11.7l-12.312.76z" id="Path-10" transform="scale(1 -1) rotate(-40 -846.203 0)"/><path d="M459.139 343.709c2.317-.572 6.15-1.807 11.004-3.86 8.02-3.391 16.034-7.91 23.535-13.725 15.373-11.918 26.556-27.681 31.629-47.704 10.751-42.434-6.638-93.975-27.315-114.377l-7.703 7.656c17.702 17.467 32.717 65.616 23.05 103.769-4.368 17.239-13.955 30.752-27.282 41.085-6.597 5.114-13.688 9.112-20.774 12.109-4.21 1.78-7.425 2.816-9.136 3.238l2.992 11.809z" id="Path-11" transform="scale(1 -1) rotate(-40 -205.151 0)"/><path d="M316.214 391.182c21.965-7.44 45.207-8.495 67.166 1.074 26.79 11.673 47.96 37.998 61.662 81.317 20.37 64.401 4.427 106.493-34.695 129.474-9.383 5.512-19.39 9.429-29.392 12.038-6.03 1.573-10.774 2.368-13.612 2.644l-5.06.494L189.203 46.605l11.811-3.514 108.15 350.73a113.963 113.963 0 0 1 7.049-2.64zm54.893 213.667c1.908-.369 4.162-.871 6.695-1.532 8.96-2.337 17.918-5.843 26.234-10.729 34.182-20.079 47.912-56.327 29.23-115.389-12.708-40.175-31.602-63.67-54.87-73.809-18.693-8.146-38.888-7.228-58.177-.696-3.823 1.295-6.944 2.579-9.219 3.64l60.107 198.515z" id="Path-9" transform="scale(1 -1) rotate(-40 -586.907 0)"/></g></g><path id="scissor__background" fill-opacity="0" fill="#FEFEFE" d="M0 28.176h587.842v587.673H0z"/></g></g></svg>