<svg width="501" height="499" version="1.1" xmlns="http://www.w3.org/2000/svg" xmlns:xlink="http://www.w3.org/1999/xlink"><defs><path id="path-1" d="M26.421 28.162h500.567v498.826H26.421z"/></defs><g id="Page-1" stroke="none" stroke-width="1" fill="none" fill-rule="evenodd"><g id="icon__plus" transform="translate(-26 -28)"><path d="M334.96 248.114V88.136h-80.413v159.978H94.106v80.414h160.44v167.646h80.415V328.528h167.182v-80.414H334.961z" id="plus__innerShadow" fill="#F4DDB1"/><path d="M194.513 260.968L81.118 147.618l69.077-69.247 113.52 113.553L376.77 78.687l69.168 69.157-113.102 113.124 118.167 118.2-69.044 69.145-118.245-118.189L145.13 448.629l-69.134-69.1 118.517-118.561zM376.805 103.31L263.658 216.4l-113.44-113.44-44.567 44.555 113.452 113.452-118.55 118.55 44.566 44.556 118.562-118.54 118.211 118.2 44.545-44.555-118.2-118.211 113.1-113.136-44.532-44.521z" id="plus__outline" fill="#818181" transform="rotate(45 263.5 263.5)"/><g id="plus__background"><use fill-opacity="0" fill="#D8D8D8" fill-rule="evenodd" xlink:href="#path-1"/><path stroke="#979797" stroke-width="1" d="M26.921 28.662h499.567v497.826H26.921z"/></g></g></g></svg>