<svg width="517" height="491" version="1.1" xmlns="http://www.w3.org/2000/svg" xmlns:xlink="http://www.w3.org/1999/xlink"><defs><path id="path-1" d="M46.346 67.5H562.31v489.698H46.346z"/></defs><g id="Page-1" stroke="none" stroke-width="1" fill="none" fill-rule="evenodd"><g id="icon__cross" transform="translate(-46 -67)"><path d="M377.2 283.436V97.971h-93.226v185.465H97.97v93.226h186.003v194.356H377.2V376.662h193.818v-93.226H377.2z" id="cross__innerShadow" fill="#F4DDB1" transform="rotate(45 334.495 334.495)"/><path d="M214.376 298.338L82.914 166.928l80.083-80.279 131.606 131.646L425.67 87.016l80.188 80.175-131.121 131.147L511.731 435.37l-80.044 80.162-137.084-137.02L157.125 515.9l-80.148-80.11 137.399-137.45zM425.71 115.563L294.537 246.671 163.023 115.157l-51.667 51.654 131.527 131.527-137.438 137.439 51.667 51.654 137.451-137.426L431.61 487.038l51.64-51.655-137.031-137.045 131.12-131.16-51.627-51.615z" id="cross__outline" fill="#818181"/><g id="cross__background"><use fill-opacity="0" fill="#D8D8D8" fill-rule="evenodd" xlink:href="#path-1"/><path stroke="#979797" stroke-width="1" d="M46.846 68H561.81v488.698H46.846z"/></g></g></g></svg>